@startuml OrderSystem-Class Diagram
class Customer {
    - customer_id: String
    + customer_name: String
    + mailling_address: Address
    + createOrder(): Void
    + showOrders(): List[Order]
}
class Product {
    - product_id: String
    + product_name: String
    + product_company: String
    + product_inventory: Integer
}
class Order {
    - order_id: String
    + order_date: Date
    + order_modify_date: Date
    + customer_id: String
    + orderitems: List[OrderItem]
    + shipping_address: Address
    + total_price: Double
    + addOrderItem(OrderItem orderItem): Void
    + removeOrderItem(OrderItem orderItem): Void
}
class OrderItem {
    - order_item_id: String
    + order_id: String
    + product_id: String
    + quantity: Integer
    + unit_price: Double
}
class Address {
    - address_id: String
    + address_line1: String
    + address_line2: String
    + city: String
    + province: String
    + postal_code: String
}
class Date{
    + year: Integer
    + month: Integer
    + day: Integer
    + hour: Integer
    + minute: Integer
    + second: Integer
}

Order "1" *-- "1...*" OrderItem: depends
Customer "1" -- "0...*" Order: orders
Product "0...*" --* "1" OrderItem: belongs
Address "1" -- "1" Order: shipping_address
Address "1" -- "1" Customer: mailling_address
Date "1" -- "1" Order: order_date, order_modify_date
@enduml
